# xmcd
# 
# Track frame offsets:
#     150
#     16980
#     38695
#     55572
# 
# Disc length: 1030
# 
# Revision: 2
# Processed by: cddbd v1.5.2PL0 Copyright (c) Steve Scherf et al.
# Submitted via: fre:ac v1.0.31
# 
DISCID=22040404
DTITLE=原田千栄 - GHOST SWEEPER
DYEAR=1993
DGENRE=Anime
TTITLE0=GHOST SWEEPER
TTITLE1=Try my heaven
TTITLE2=GHOST SWEEPER(OFF VOCAL VERSION)
TTITLE3=Try my heaven(OFF VOCAL VERSION)
EXTD=
EXTT0=
EXTT1=
EXTT2=
EXTT3=
PLAYORDER=
